solid CATIA STL
  facet normal  0.000000e+000  0.000000e+000  1.000000e+000
    outer loop
      vertex -5.543185e-001 -2.948344e+000 -3.208850e+001
      vertex  1.284540e+000 -2.711081e+000 -3.208850e+001
      vertex -2.181446e+000 -2.059440e+000 -3.208850e+001
    endloop
  endfacet
  facet normal  -0.000000e+000  0.000000e+000  9.999999e-001
    outer loop
      vertex  2.632748e+000 -1.438277e+000 -3.208850e+001
      vertex -2.181446e+000 -2.059440e+000 -3.208850e+001
      vertex  1.284540e+000 -2.711081e+000 -3.208850e+001
    endloop
  endfacet
  facet normal  0.000000e+000  0.000000e+000  1.000000e+000
    outer loop
      vertex -2.181446e+000 -2.059440e+000 -3.208850e+001
      vertex  2.632748e+000 -1.438277e+000 -3.208850e+001
      vertex -2.975335e+000 -3.839000e-001 -3.208850e+001
    endloop
  endfacet
  facet normal  -0.000000e+000  0.000000e+000  9.999999e-001
    outer loop
      vertex  2.975335e+000  3.839000e-001 -3.208850e+001
      vertex -2.975335e+000 -3.839000e-001 -3.208850e+001
      vertex  2.632748e+000 -1.438277e+000 -3.208850e+001
    endloop
  endfacet
  facet normal  0.000000e+000  0.000000e+000  9.999999e-001
    outer loop
      vertex -2.975335e+000 -3.839000e-001 -3.208850e+001
      vertex  2.975335e+000  3.839000e-001 -3.208850e+001
      vertex -2.632748e+000  1.438277e+000 -3.208850e+001
    endloop
  endfacet
  facet normal  -0.000000e+000  0.000000e+000  1.000000e+000
    outer loop
      vertex  2.181446e+000  2.059440e+000 -3.208850e+001
      vertex -2.632748e+000  1.438277e+000 -3.208850e+001
      vertex  2.975335e+000  3.839000e-001 -3.208850e+001
    endloop
  endfacet
  facet normal  0.000000e+000  0.000000e+000  9.999999e-001
    outer loop
      vertex -2.632748e+000  1.438277e+000 -3.208850e+001
      vertex  2.181446e+000  2.059440e+000 -3.208850e+001
      vertex -1.284540e+000  2.711081e+000 -3.208850e+001
    endloop
  endfacet
  facet normal  -0.000000e+000  0.000000e+000  1.000000e+000
    outer loop
      vertex  5.543185e-001  2.948344e+000 -3.208850e+001
      vertex -1.284540e+000  2.711081e+000 -3.208850e+001
      vertex  2.181446e+000  2.059440e+000 -3.208850e+001
    endloop
  endfacet
  facet normal  0.000000e+000  0.000000e+000  1.000000e+000
    outer loop
      vertex  1.110182e+001  6.763848e+000 -7.088504e+000
      vertex  8.118924e+000  1.015298e+001 -7.088504e+000
      vertex  5.543185e-001  2.948344e+000 -7.088504e+000
    endloop
  endfacet
  facet normal  0.000000e+000  0.000000e+000  1.000000e+000
    outer loop
      vertex  4.156768e+000  1.231752e+001 -7.088504e+000
      vertex  5.543185e-001  2.948344e+000 -7.088504e+000
      vertex  8.118924e+000  1.015298e+001 -7.088504e+000
    endloop
  endfacet
  facet normal  0.000000e+000  -0.000000e+000  1.000000e+000
    outer loop
      vertex -3.067556e-001  1.299638e+001 -7.088504e+000
      vertex  5.543185e-001  2.948344e+000 -7.088504e+000
      vertex  4.156768e+000  1.231752e+001 -7.088504e+000
    endloop
  endfacet
  facet normal  0.000000e+000  0.000000e+000  1.000000e+000
    outer loop
      vertex -1.284540e+000  2.711081e+000 -7.088504e+000
      vertex  5.543185e-001  2.948344e+000 -7.088504e+000
      vertex -3.067556e-001  1.299638e+001 -7.088504e+000
    endloop
  endfacet
  facet normal  0.000000e+000  -0.000000e+000  1.000000e+000
    outer loop
      vertex -4.733280e+000  1.210769e+001 -7.088504e+000
      vertex -1.284540e+000  2.711081e+000 -7.088504e+000
      vertex -3.067556e-001  1.299638e+001 -7.088504e+000
    endloop
  endfacet
  facet normal  0.000000e+000  0.000000e+000  1.000000e+000
    outer loop
      vertex -1.140857e+001  6.232532e+000 -7.088504e+000
      vertex -1.284540e+000  2.711081e+000 -7.088504e+000
      vertex -4.733280e+000  1.210769e+001 -7.088504e+000
    endloop
  endfacet
  facet normal  0.000000e+000  0.000000e+000  1.000000e+000
    outer loop
      vertex -8.588901e+000  9.758626e+000 -7.088504e+000
      vertex -1.140857e+001  6.232532e+000 -7.088504e+000
      vertex -4.733280e+000  1.210769e+001 -7.088504e+000
    endloop
  endfacet
  facet normal  -0.000000e+000  0.000000e+000  1.000000e+000
    outer loop
      vertex  1.285220e+001 -1.954702e+000 -7.088504e+000
      vertex  1.284540e+000 -2.711081e+000 -7.088504e+000
      vertex  1.140857e+001 -6.232532e+000 -7.088504e+000
    endloop
  endfacet
  facet normal  0.000000e+000  0.000000e+000  1.000000e+000
    outer loop
      vertex  8.588901e+000 -9.758626e+000 -7.088504e+000
      vertex  1.140857e+001 -6.232532e+000 -7.088504e+000
      vertex  1.284540e+000 -2.711081e+000 -7.088504e+000
    endloop
  endfacet
  facet normal  0.000000e+000  0.000000e+000  1.000000e+000
    outer loop
      vertex  4.733280e+000 -1.210769e+001 -7.088504e+000
      vertex  8.588901e+000 -9.758626e+000 -7.088504e+000
      vertex  1.284540e+000 -2.711081e+000 -7.088504e+000
    endloop
  endfacet
  facet normal  0.000000e+000  0.000000e+000  1.000000e+000
    outer loop
      vertex  3.067556e-001 -1.299638e+001 -7.088504e+000
      vertex  4.733280e+000 -1.210769e+001 -7.088504e+000
      vertex  1.284540e+000 -2.711081e+000 -7.088504e+000
    endloop
  endfacet
  facet normal  0.000000e+000  -0.000000e+000  1.000000e+000
    outer loop
      vertex -5.543185e-001 -2.948344e+000 -7.088504e+000
      vertex  3.067556e-001 -1.299638e+001 -7.088504e+000
      vertex  1.284540e+000 -2.711081e+000 -7.088504e+000
    endloop
  endfacet
  facet normal  0.000000e+000  0.000000e+000  1.000000e+000
    outer loop
      vertex -4.156768e+000 -1.231752e+001 -7.088504e+000
      vertex  3.067556e-001 -1.299638e+001 -7.088504e+000
      vertex -5.543185e-001 -2.948344e+000 -7.088504e+000
    endloop
  endfacet
  facet normal  0.000000e+000  -0.000000e+000  1.000000e+000
    outer loop
      vertex -8.118924e+000 -1.015298e+001 -7.088504e+000
      vertex -4.156768e+000 -1.231752e+001 -7.088504e+000
      vertex -5.543185e-001 -2.948344e+000 -7.088504e+000
    endloop
  endfacet
  facet normal  0.000000e+000  -0.000000e+000  1.000000e+000
    outer loop
      vertex -1.110182e+001 -6.763848e+000 -7.088504e+000
      vertex -8.118924e+000 -1.015298e+001 -7.088504e+000
      vertex -5.543185e-001 -2.948344e+000 -7.088504e+000
    endloop
  endfacet
  facet normal  0.000000e+000  -0.000000e+000  9.999999e-001
    outer loop
      vertex -1.274567e+001 -2.558893e+000 -7.088504e+000
      vertex -1.110182e+001 -6.763848e+000 -7.088504e+000
      vertex -5.543185e-001 -2.948344e+000 -7.088504e+000
    endloop
  endfacet
  facet normal  0.000000e+000  0.000000e+000  1.000000e+000
    outer loop
      vertex -5.543185e-001 -2.948344e+000 -7.088504e+000
      vertex -2.181446e+000 -2.059440e+000 -7.088504e+000
      vertex -1.274567e+001 -2.558893e+000 -7.088504e+000
    endloop
  endfacet
  facet normal  0.000000e+000  -0.000000e+000  1.000000e+000
    outer loop
      vertex -1.285220e+001  1.954702e+000 -7.088504e+000
      vertex -1.274567e+001 -2.558893e+000 -7.088504e+000
      vertex -2.181446e+000 -2.059440e+000 -7.088504e+000
    endloop
  endfacet
  facet normal  0.000000e+000  0.000000e+000  9.999999e-001
    outer loop
      vertex -2.975335e+000 -3.839000e-001 -7.088504e+000
      vertex -1.285220e+001  1.954702e+000 -7.088504e+000
      vertex -2.181446e+000 -2.059440e+000 -7.088504e+000
    endloop
  endfacet
  facet normal  0.000000e+000  0.000000e+000  9.999999e-001
    outer loop
      vertex -2.632748e+000  1.438277e+000 -7.088504e+000
      vertex -1.285220e+001  1.954702e+000 -7.088504e+000
      vertex -2.975335e+000 -3.839000e-001 -7.088504e+000
    endloop
  endfacet
  facet normal  0.000000e+000  0.000000e+000  1.000000e+000
    outer loop
      vertex -2.632748e+000  1.438277e+000 -7.088504e+000
      vertex -1.284540e+000  2.711081e+000 -7.088504e+000
      vertex -1.285220e+001  1.954702e+000 -7.088504e+000
    endloop
  endfacet
  facet normal  0.000000e+000  0.000000e+000  1.000000e+000
    outer loop
      vertex -1.140857e+001  6.232532e+000 -7.088504e+000
      vertex -1.285220e+001  1.954702e+000 -7.088504e+000
      vertex -1.284540e+000  2.711081e+000 -7.088504e+000
    endloop
  endfacet
  facet normal  0.000000e+000  0.000000e+000  1.000000e+000
    outer loop
      vertex  2.632748e+000 -1.438277e+000 -7.088504e+000
      vertex  1.284540e+000 -2.711081e+000 -7.088504e+000
      vertex  1.285220e+001 -1.954702e+000 -7.088504e+000
    endloop
  endfacet
  facet normal  0.000000e+000  0.000000e+000  1.000000e+000
    outer loop
      vertex  1.285220e+001 -1.954702e+000 -7.088504e+000
      vertex  1.274567e+001  2.558893e+000 -7.088504e+000
      vertex  2.632748e+000 -1.438277e+000 -7.088504e+000
    endloop
  endfacet
  facet normal  0.000000e+000  0.000000e+000  1.000000e+000
    outer loop
      vertex  2.975335e+000  3.839000e-001 -7.088504e+000
      vertex  2.632748e+000 -1.438277e+000 -7.088504e+000
      vertex  1.274567e+001  2.558893e+000 -7.088504e+000
    endloop
  endfacet
  facet normal  0.000000e+000  -0.000000e+000  1.000000e+000
    outer loop
      vertex  2.181446e+000  2.059440e+000 -7.088504e+000
      vertex  2.975335e+000  3.839000e-001 -7.088504e+000
      vertex  1.274567e+001  2.558893e+000 -7.088504e+000
    endloop
  endfacet
  facet normal  0.000000e+000  -0.000000e+000  1.000000e+000
    outer loop
      vertex  5.543185e-001  2.948344e+000 -7.088504e+000
      vertex  2.181446e+000  2.059440e+000 -7.088504e+000
      vertex  1.274567e+001  2.558893e+000 -7.088504e+000
    endloop
  endfacet
  facet normal  0.000000e+000  0.000000e+000  9.999999e-001
    outer loop
      vertex  1.274567e+001  2.558893e+000 -7.088504e+000
      vertex  1.110182e+001  6.763848e+000 -7.088504e+000
      vertex  5.543185e-001  2.948344e+000 -7.088504e+000
    endloop
  endfacet
  facet normal  9.827812e-001 -1.847728e-001  0.000000e+000
    outer loop
      vertex -2.632748e+000  1.438277e+000 -3.208850e+001
      vertex -2.632748e+000  1.438277e+000 -7.088504e+000
      vertex -2.975335e+000 -3.839000e-001 -3.208850e+001
    endloop
  endfacet
  facet normal  9.827812e-001 -1.847728e-001  0.000000e+000
    outer loop
      vertex -2.975335e+000 -3.839000e-001 -3.208850e+001
      vertex -2.632748e+000  1.438277e+000 -7.088504e+000
      vertex -2.975335e+000 -3.839000e-001 -7.088504e+000
    endloop
  endfacet
  facet normal  9.036934e-001  4.281799e-001  0.000000e+000
    outer loop
      vertex -2.975335e+000 -3.839000e-001 -3.208850e+001
      vertex -2.975335e+000 -3.839000e-001 -7.088504e+000
      vertex -2.181446e+000 -2.059440e+000 -3.208850e+001
    endloop
  endfacet
  facet normal  9.036934e-001  4.281799e-001  -0.000000e+000
    outer loop
      vertex -2.181446e+000 -2.059440e+000 -3.208850e+001
      vertex -2.975335e+000 -3.839000e-001 -7.088504e+000
      vertex -2.181446e+000 -2.059440e+000 -7.088504e+000
    endloop
  endfacet
  facet normal  4.794255e-001  8.775825e-001  0.000000e+000
    outer loop
      vertex -2.181446e+000 -2.059440e+000 -3.208850e+001
      vertex -2.181446e+000 -2.059440e+000 -7.088504e+000
      vertex -5.543185e-001 -2.948344e+000 -3.208850e+001
    endloop
  endfacet
  facet normal  4.794255e-001  8.775825e-001  -0.000000e+000
    outer loop
      vertex -5.543185e-001 -2.948344e+000 -3.208850e+001
      vertex -2.181446e+000 -2.059440e+000 -7.088504e+000
      vertex -5.543185e-001 -2.948344e+000 -7.088504e+000
    endloop
  endfacet
  facet normal -1.279666e-001  9.917785e-001  0.000000e+000
    outer loop
      vertex -5.543185e-001 -2.948344e+000 -3.208850e+001
      vertex -5.543185e-001 -2.948344e+000 -7.088504e+000
      vertex  1.284540e+000 -2.711081e+000 -3.208850e+001
    endloop
  endfacet
  facet normal -1.279666e-001  9.917785e-001  0.000000e+000
    outer loop
      vertex  1.284540e+000 -2.711081e+000 -3.208850e+001
      vertex -5.543185e-001 -2.948344e+000 -7.088504e+000
      vertex  1.284540e+000 -2.711081e+000 -7.088504e+000
    endloop
  endfacet
  facet normal -6.864799e-001  7.271487e-001  0.000000e+000
    outer loop
      vertex  1.284540e+000 -2.711081e+000 -3.208850e+001
      vertex  1.284540e+000 -2.711081e+000 -7.088504e+000
      vertex  2.632748e+000 -1.438277e+000 -3.208850e+001
    endloop
  endfacet
  facet normal -6.864799e-001  7.271487e-001  0.000000e+000
    outer loop
      vertex  2.632748e+000 -1.438277e+000 -3.208850e+001
      vertex  1.284540e+000 -2.711081e+000 -7.088504e+000
      vertex  2.632748e+000 -1.438277e+000 -7.088504e+000
    endloop
  endfacet
  facet normal -9.475015e-001  3.197513e-001  0.000000e+000
    outer loop
      vertex -1.140857e+001  6.232532e+000 -7.088504e+000
      vertex -1.140857e+001  6.232532e+000 -1.708850e+001
      vertex -1.285220e+001  1.954702e+000 -7.088504e+000
    endloop
  endfacet
  facet normal -9.475015e-001  3.197513e-001  0.000000e+000
    outer loop
      vertex -1.285220e+001  1.954702e+000 -7.088504e+000
      vertex -1.140857e+001  6.232532e+000 -1.708850e+001
      vertex -1.285220e+001  1.954702e+000 -1.708850e+001
    endloop
  endfacet
  facet normal -9.997215e-001 -2.359655e-002  0.000000e+000
    outer loop
      vertex -1.285220e+001  1.954702e+000 -7.088504e+000
      vertex -1.285220e+001  1.954702e+000 -1.708850e+001
      vertex -1.274567e+001 -2.558893e+000 -7.088504e+000
    endloop
  endfacet
  facet normal -9.997215e-001 -2.359655e-002  -0.000000e+000
    outer loop
      vertex -1.274567e+001 -2.558893e+000 -7.088504e+000
      vertex -1.285220e+001  1.954702e+000 -1.708850e+001
      vertex -1.274567e+001 -2.558893e+000 -1.708850e+001
    endloop
  endfacet
  facet normal -9.313605e-001 -3.640983e-001  0.000000e+000
    outer loop
      vertex -1.274567e+001 -2.558893e+000 -7.088504e+000
      vertex -1.274567e+001 -2.558893e+000 -1.708850e+001
      vertex -1.110182e+001 -6.763848e+000 -7.088504e+000
    endloop
  endfacet
  facet normal -9.313605e-001 -3.640983e-001  -0.000000e+000
    outer loop
      vertex -1.110182e+001 -6.763848e+000 -7.088504e+000
      vertex -1.274567e+001 -2.558893e+000 -1.708850e+001
      vertex -1.110182e+001 -6.763848e+000 -1.708850e+001
    endloop
  endfacet
  facet normal -7.506635e-001 -6.606846e-001  0.000000e+000
    outer loop
      vertex -1.110182e+001 -6.763848e+000 -7.088504e+000
      vertex -1.110182e+001 -6.763848e+000 -1.708850e+001
      vertex -8.118924e+000 -1.015298e+001 -7.088504e+000
    endloop
  endfacet
  facet normal -7.506635e-001 -6.606846e-001  -0.000000e+000
    outer loop
      vertex -8.118924e+000 -1.015298e+001 -7.088504e+000
      vertex -1.110182e+001 -6.763848e+000 -1.708850e+001
      vertex -8.118924e+000 -1.015298e+001 -1.708850e+001
    endloop
  endfacet
  facet normal -4.794255e-001 -8.775826e-001  0.000000e+000
    outer loop
      vertex -8.118924e+000 -1.015298e+001 -7.088504e+000
      vertex -8.118924e+000 -1.015298e+001 -1.708850e+001
      vertex -4.156768e+000 -1.231752e+001 -7.088504e+000
    endloop
  endfacet
  facet normal -4.794255e-001 -8.775826e-001  -0.000000e+000
    outer loop
      vertex -4.156768e+000 -1.231752e+001 -7.088504e+000
      vertex -8.118924e+000 -1.015298e+001 -1.708850e+001
      vertex -4.156768e+000 -1.231752e+001 -1.708850e+001
    endloop
  endfacet
  facet normal -1.503616e-001 -9.886311e-001  0.000000e+000
    outer loop
      vertex -4.156768e+000 -1.231752e+001 -7.088504e+000
      vertex -4.156768e+000 -1.231752e+001 -1.708850e+001
      vertex  3.067556e-001 -1.299638e+001 -7.088504e+000
    endloop
  endfacet
  facet normal -1.503616e-001 -9.886311e-001  -0.000000e+000
    outer loop
      vertex  3.067556e-001 -1.299638e+001 -7.088504e+000
      vertex -4.156768e+000 -1.231752e+001 -1.708850e+001
      vertex  3.067556e-001 -1.299638e+001 -1.708850e+001
    endloop
  endfacet
  facet normal  1.968378e-001 -9.804361e-001  0.000000e+000
    outer loop
      vertex  3.067556e-001 -1.299638e+001 -7.088504e+000
      vertex  3.067556e-001 -1.299638e+001 -1.708850e+001
      vertex  4.733280e+000 -1.210769e+001 -7.088504e+000
    endloop
  endfacet
  facet normal  1.968378e-001 -9.804361e-001  0.000000e+000
    outer loop
      vertex  4.733280e+000 -1.210769e+001 -7.088504e+000
      vertex  3.067556e-001 -1.299638e+001 -1.708850e+001
      vertex  4.733280e+000 -1.210769e+001 -1.708850e+001
    endloop
  endfacet
  facet normal  5.202960e-001 -8.539860e-001  0.000000e+000
    outer loop
      vertex  4.733280e+000 -1.210769e+001 -7.088504e+000
      vertex  4.733280e+000 -1.210769e+001 -1.708850e+001
      vertex  8.588901e+000 -9.758626e+000 -7.088504e+000
    endloop
  endfacet
  facet normal  5.202960e-001 -8.539860e-001  0.000000e+000
    outer loop
      vertex  8.588901e+000 -9.758626e+000 -7.088504e+000
      vertex  4.733280e+000 -1.210769e+001 -1.708850e+001
      vertex  8.588901e+000 -9.758626e+000 -1.708850e+001
    endloop
  endfacet
  facet normal  7.809988e-001 -6.245326e-001  0.000000e+000
    outer loop
      vertex  8.588901e+000 -9.758626e+000 -7.088504e+000
      vertex  8.588901e+000 -9.758626e+000 -1.708850e+001
      vertex  1.140857e+001 -6.232532e+000 -7.088504e+000
    endloop
  endfacet
  facet normal  7.809988e-001 -6.245326e-001  0.000000e+000
    outer loop
      vertex  1.140857e+001 -6.232532e+000 -7.088504e+000
      vertex  8.588901e+000 -9.758626e+000 -1.708850e+001
      vertex  1.140857e+001 -6.232532e+000 -1.708850e+001
    endloop
  endfacet
  facet normal  7.351965e-001 -5.879065e-001 -3.374197e-001
    outer loop
      vertex -6.235599e-015  3.406523e-015 -5.280571e+001
      vertex  1.140857e+001 -6.232532e+000 -1.708850e+001
      vertex  8.588901e+000 -9.758626e+000 -1.708850e+001
    endloop
  endfacet
  facet normal -8.919346e-001  3.009993e-001 -3.374197e-001
    outer loop
      vertex -6.235599e-015  3.406523e-015 -5.280571e+001
      vertex -1.285220e+001  1.954702e+000 -1.708850e+001
      vertex -1.140857e+001  6.232532e+000 -1.708850e+001
    endloop
  endfacet
  facet normal -9.410923e-001 -2.221272e-002 -3.374197e-001
    outer loop
      vertex -6.235599e-015  3.406523e-015 -5.280571e+001
      vertex -1.274567e+001 -2.558893e+000 -1.708850e+001
      vertex -1.285220e+001  1.954702e+000 -1.708850e+001
    endloop
  endfacet
  facet normal -8.767402e-001 -3.427455e-001 -3.374197e-001
    outer loop
      vertex -6.235599e-015  3.406523e-015 -5.280571e+001
      vertex -1.110182e+001 -6.763848e+000 -1.708850e+001
      vertex -1.274567e+001 -2.558893e+000 -1.708850e+001
    endloop
  endfacet
  facet normal -7.066404e-001 -6.219383e-001 -3.374197e-001
    outer loop
      vertex -6.235599e-015  3.406523e-015 -5.280571e+001
      vertex -8.118924e+000 -1.015298e+001 -1.708850e+001
      vertex -1.110182e+001 -6.763848e+000 -1.708850e+001
    endloop
  endfacet
  facet normal -4.513092e-001 -8.261161e-001 -3.374197e-001
    outer loop
      vertex -6.235599e-015  3.406523e-015 -5.280571e+001
      vertex -4.156768e+000 -1.231752e+001 -1.708850e+001
      vertex -8.118924e+000 -1.015298e+001 -1.708850e+001
    endloop
  endfacet
  facet normal -1.415436e-001 -9.306521e-001 -3.374197e-001
    outer loop
      vertex -6.235599e-015  3.406523e-015 -5.280571e+001
      vertex  3.067556e-001 -1.299638e+001 -1.708850e+001
      vertex -4.156768e+000 -1.231752e+001 -1.708850e+001
    endloop
  endfacet
  facet normal  1.852941e-001 -9.229377e-001 -3.374197e-001
    outer loop
      vertex -6.235599e-015  3.406523e-015 -5.280571e+001
      vertex  4.733280e+000 -1.210769e+001 -1.708850e+001
      vertex  3.067556e-001 -1.299638e+001 -1.708850e+001
    endloop
  endfacet
  facet normal  4.897830e-001 -8.039034e-001 -3.374197e-001
    outer loop
      vertex -6.235599e-015  3.406523e-015 -5.280571e+001
      vertex  8.588901e+000 -9.758626e+000 -1.708850e+001
      vertex  4.733280e+000 -1.210769e+001 -1.708850e+001
    endloop
  endfacet
  facet normal -9.827812e-001  1.847728e-001  0.000000e+000
    outer loop
      vertex  2.632748e+000 -1.438277e+000 -3.208850e+001
      vertex  2.632748e+000 -1.438277e+000 -7.088504e+000
      vertex  2.975335e+000  3.839000e-001 -3.208850e+001
    endloop
  endfacet
  facet normal -9.827812e-001  1.847728e-001  0.000000e+000
    outer loop
      vertex  2.975335e+000  3.839000e-001 -3.208850e+001
      vertex  2.632748e+000 -1.438277e+000 -7.088504e+000
      vertex  2.975335e+000  3.839000e-001 -7.088504e+000
    endloop
  endfacet
  facet normal -9.036934e-001 -4.281799e-001  -0.000000e+000
    outer loop
      vertex  2.975335e+000  3.839000e-001 -3.208850e+001
      vertex  2.975335e+000  3.839000e-001 -7.088504e+000
      vertex  2.181446e+000  2.059440e+000 -3.208850e+001
    endloop
  endfacet
  facet normal -9.036934e-001 -4.281799e-001  0.000000e+000
    outer loop
      vertex  2.181446e+000  2.059440e+000 -3.208850e+001
      vertex  2.975335e+000  3.839000e-001 -7.088504e+000
      vertex  2.181446e+000  2.059440e+000 -7.088504e+000
    endloop
  endfacet
  facet normal -4.794255e-001 -8.775825e-001  -0.000000e+000
    outer loop
      vertex  2.181446e+000  2.059440e+000 -3.208850e+001
      vertex  2.181446e+000  2.059440e+000 -7.088504e+000
      vertex  5.543185e-001  2.948344e+000 -3.208850e+001
    endloop
  endfacet
  facet normal -4.794255e-001 -8.775825e-001  0.000000e+000
    outer loop
      vertex  5.543185e-001  2.948344e+000 -3.208850e+001
      vertex  2.181446e+000  2.059440e+000 -7.088504e+000
      vertex  5.543185e-001  2.948344e+000 -7.088504e+000
    endloop
  endfacet
  facet normal  1.279666e-001 -9.917785e-001  0.000000e+000
    outer loop
      vertex  5.543185e-001  2.948344e+000 -3.208850e+001
      vertex  5.543185e-001  2.948344e+000 -7.088504e+000
      vertex -1.284540e+000  2.711081e+000 -3.208850e+001
    endloop
  endfacet
  facet normal  1.279666e-001 -9.917785e-001  0.000000e+000
    outer loop
      vertex -1.284540e+000  2.711081e+000 -3.208850e+001
      vertex  5.543185e-001  2.948344e+000 -7.088504e+000
      vertex -1.284540e+000  2.711081e+000 -7.088504e+000
    endloop
  endfacet
  facet normal  6.864799e-001 -7.271487e-001  0.000000e+000
    outer loop
      vertex -1.284540e+000  2.711081e+000 -3.208850e+001
      vertex -1.284540e+000  2.711081e+000 -7.088504e+000
      vertex -2.632748e+000  1.438277e+000 -3.208850e+001
    endloop
  endfacet
  facet normal  6.864799e-001 -7.271487e-001  0.000000e+000
    outer loop
      vertex -2.632748e+000  1.438277e+000 -3.208850e+001
      vertex -1.284540e+000  2.711081e+000 -7.088504e+000
      vertex -2.632748e+000  1.438277e+000 -7.088504e+000
    endloop
  endfacet
  facet normal  9.475015e-001 -3.197513e-001  0.000000e+000
    outer loop
      vertex  1.140857e+001 -6.232532e+000 -7.088504e+000
      vertex  1.140857e+001 -6.232532e+000 -1.708850e+001
      vertex  1.285220e+001 -1.954702e+000 -7.088504e+000
    endloop
  endfacet
  facet normal  9.475015e-001 -3.197513e-001  0.000000e+000
    outer loop
      vertex  1.285220e+001 -1.954702e+000 -7.088504e+000
      vertex  1.140857e+001 -6.232532e+000 -1.708850e+001
      vertex  1.285220e+001 -1.954702e+000 -1.708850e+001
    endloop
  endfacet
  facet normal  9.997215e-001  2.359655e-002  -0.000000e+000
    outer loop
      vertex  1.285220e+001 -1.954702e+000 -7.088504e+000
      vertex  1.285220e+001 -1.954702e+000 -1.708850e+001
      vertex  1.274567e+001  2.558893e+000 -7.088504e+000
    endloop
  endfacet
  facet normal  9.997215e-001  2.359655e-002  0.000000e+000
    outer loop
      vertex  1.274567e+001  2.558893e+000 -7.088504e+000
      vertex  1.285220e+001 -1.954702e+000 -1.708850e+001
      vertex  1.274567e+001  2.558893e+000 -1.708850e+001
    endloop
  endfacet
  facet normal  9.313605e-001  3.640983e-001  -0.000000e+000
    outer loop
      vertex  1.274567e+001  2.558893e+000 -7.088504e+000
      vertex  1.274567e+001  2.558893e+000 -1.708850e+001
      vertex  1.110182e+001  6.763848e+000 -7.088504e+000
    endloop
  endfacet
  facet normal  9.313605e-001  3.640983e-001  0.000000e+000
    outer loop
      vertex  1.110182e+001  6.763848e+000 -7.088504e+000
      vertex  1.274567e+001  2.558893e+000 -1.708850e+001
      vertex  1.110182e+001  6.763848e+000 -1.708850e+001
    endloop
  endfacet
  facet normal  7.506635e-001  6.606846e-001  -0.000000e+000
    outer loop
      vertex  1.110182e+001  6.763848e+000 -7.088504e+000
      vertex  1.110182e+001  6.763848e+000 -1.708850e+001
      vertex  8.118924e+000  1.015298e+001 -7.088504e+000
    endloop
  endfacet
  facet normal  7.506635e-001  6.606846e-001  0.000000e+000
    outer loop
      vertex  8.118924e+000  1.015298e+001 -7.088504e+000
      vertex  1.110182e+001  6.763848e+000 -1.708850e+001
      vertex  8.118924e+000  1.015298e+001 -1.708850e+001
    endloop
  endfacet
  facet normal  4.794255e-001  8.775826e-001  -0.000000e+000
    outer loop
      vertex  8.118924e+000  1.015298e+001 -7.088504e+000
      vertex  8.118924e+000  1.015298e+001 -1.708850e+001
      vertex  4.156768e+000  1.231752e+001 -7.088504e+000
    endloop
  endfacet
  facet normal  4.794255e-001  8.775826e-001  0.000000e+000
    outer loop
      vertex  4.156768e+000  1.231752e+001 -7.088504e+000
      vertex  8.118924e+000  1.015298e+001 -1.708850e+001
      vertex  4.156768e+000  1.231752e+001 -1.708850e+001
    endloop
  endfacet
  facet normal  1.503616e-001  9.886311e-001  -0.000000e+000
    outer loop
      vertex  4.156768e+000  1.231752e+001 -7.088504e+000
      vertex  4.156768e+000  1.231752e+001 -1.708850e+001
      vertex -3.067556e-001  1.299638e+001 -7.088504e+000
    endloop
  endfacet
  facet normal  1.503616e-001  9.886311e-001  0.000000e+000
    outer loop
      vertex -3.067556e-001  1.299638e+001 -7.088504e+000
      vertex  4.156768e+000  1.231752e+001 -1.708850e+001
      vertex -3.067556e-001  1.299638e+001 -1.708850e+001
    endloop
  endfacet
  facet normal -1.968378e-001  9.804361e-001  0.000000e+000
    outer loop
      vertex -3.067556e-001  1.299638e+001 -7.088504e+000
      vertex -3.067556e-001  1.299638e+001 -1.708850e+001
      vertex -4.733280e+000  1.210769e+001 -7.088504e+000
    endloop
  endfacet
  facet normal -1.968378e-001  9.804361e-001  0.000000e+000
    outer loop
      vertex -4.733280e+000  1.210769e+001 -7.088504e+000
      vertex -3.067556e-001  1.299638e+001 -1.708850e+001
      vertex -4.733280e+000  1.210769e+001 -1.708850e+001
    endloop
  endfacet
  facet normal -5.202960e-001  8.539860e-001  0.000000e+000
    outer loop
      vertex -4.733280e+000  1.210769e+001 -7.088504e+000
      vertex -4.733280e+000  1.210769e+001 -1.708850e+001
      vertex -8.588901e+000  9.758626e+000 -7.088504e+000
    endloop
  endfacet
  facet normal -5.202960e-001  8.539860e-001  0.000000e+000
    outer loop
      vertex -8.588901e+000  9.758626e+000 -7.088504e+000
      vertex -4.733280e+000  1.210769e+001 -1.708850e+001
      vertex -8.588901e+000  9.758626e+000 -1.708850e+001
    endloop
  endfacet
  facet normal -7.809988e-001  6.245326e-001  0.000000e+000
    outer loop
      vertex -8.588901e+000  9.758626e+000 -7.088504e+000
      vertex -8.588901e+000  9.758626e+000 -1.708850e+001
      vertex -1.140857e+001  6.232532e+000 -7.088504e+000
    endloop
  endfacet
  facet normal -7.809988e-001  6.245326e-001  0.000000e+000
    outer loop
      vertex -1.140857e+001  6.232532e+000 -7.088504e+000
      vertex -8.588901e+000  9.758626e+000 -1.708850e+001
      vertex -1.140857e+001  6.232532e+000 -1.708850e+001
    endloop
  endfacet
  facet normal -7.351965e-001  5.879065e-001 -3.374197e-001
    outer loop
      vertex -6.235599e-015  3.406523e-015 -5.280571e+001
      vertex -1.140857e+001  6.232532e+000 -1.708850e+001
      vertex -8.588901e+000  9.758626e+000 -1.708850e+001
    endloop
  endfacet
  facet normal  8.919346e-001 -3.009993e-001 -3.374197e-001
    outer loop
      vertex -6.235599e-015  3.406523e-015 -5.280571e+001
      vertex  1.285220e+001 -1.954702e+000 -1.708850e+001
      vertex  1.140857e+001 -6.232532e+000 -1.708850e+001
    endloop
  endfacet
  facet normal  9.410923e-001  2.221272e-002 -3.374197e-001
    outer loop
      vertex -6.235599e-015  3.406523e-015 -5.280571e+001
      vertex  1.274567e+001  2.558893e+000 -1.708850e+001
      vertex  1.285220e+001 -1.954702e+000 -1.708850e+001
    endloop
  endfacet
  facet normal  8.767402e-001  3.427455e-001 -3.374197e-001
    outer loop
      vertex -6.235599e-015  3.406523e-015 -5.280571e+001
      vertex  1.110182e+001  6.763848e+000 -1.708850e+001
      vertex  1.274567e+001  2.558893e+000 -1.708850e+001
    endloop
  endfacet
  facet normal  7.066404e-001  6.219383e-001 -3.374197e-001
    outer loop
      vertex -6.235599e-015  3.406523e-015 -5.280571e+001
      vertex  8.118924e+000  1.015298e+001 -1.708850e+001
      vertex  1.110182e+001  6.763848e+000 -1.708850e+001
    endloop
  endfacet
  facet normal  4.513092e-001  8.261161e-001 -3.374197e-001
    outer loop
      vertex -6.235599e-015  3.406523e-015 -5.280571e+001
      vertex  4.156768e+000  1.231752e+001 -1.708850e+001
      vertex  8.118924e+000  1.015298e+001 -1.708850e+001
    endloop
  endfacet
  facet normal  1.415436e-001  9.306521e-001 -3.374197e-001
    outer loop
      vertex -6.235599e-015  3.406523e-015 -5.280571e+001
      vertex -3.067556e-001  1.299638e+001 -1.708850e+001
      vertex  4.156768e+000  1.231752e+001 -1.708850e+001
    endloop
  endfacet
  facet normal -1.852941e-001  9.229377e-001 -3.374197e-001
    outer loop
      vertex -6.235599e-015  3.406523e-015 -5.280571e+001
      vertex -4.733280e+000  1.210769e+001 -1.708850e+001
      vertex -3.067556e-001  1.299638e+001 -1.708850e+001
    endloop
  endfacet
  facet normal -4.897830e-001  8.039034e-001 -3.374197e-001
    outer loop
      vertex -6.235599e-015  3.406523e-015 -5.280571e+001
      vertex -8.588901e+000  9.758626e+000 -1.708850e+001
      vertex -4.733280e+000  1.210769e+001 -1.708850e+001
    endloop
  endfacet
endsolid CATIA STL
